<svg width="89" height="26" viewBox="0 0 89 26" fill="none" xmlns="http://www.w3.org/2000/svg">
<g clip-path="url(#clip0_10623_7)">
<line y1="1" x2="13" y2="1" stroke="#71744F" stroke-width="2"/>
<path d="M2.41895 8.22656V26H0.0629883V8.22656H2.41895ZM13.1489 8.22656L5.76367 16.5151L1.61328 20.8242L1.22266 18.3096L4.34766 14.8672L10.3169 8.22656H13.1489ZM10.8784 26L4.29883 17.333L5.70264 15.4653L13.686 26H10.8784ZM29.9131 8.22656V26H27.5571V8.22656H29.9131ZM59.4946 8.22656V26H57.1265L48.1787 12.2915V26H45.8228V8.22656H48.1787L57.1631 21.9717V8.22656H59.4946ZM88.9663 8.22656V26H86.5981L77.6504 12.2915V26H75.2944V8.22656H77.6504L86.6348 21.9717V8.22656H88.9663Z" fill="#71744F"/>
</g>
<defs>
<clipPath id="clip0_10623_7">
<rect width="89" height="26" fill="white"/>
</clipPath>
</defs>
</svg>
